<svg version="1.2" xmlns="http://www.w3.org/2000/svg" viewBox="0 0 1551 1551" width="1500" height="1500">
	<title>black-svg</title>
	<style>
		.s0 { fill: #000000 } 
	</style>
	<g id="Layer">
		<path id="Layer" fill-rule="evenodd" class="s0" d="m1205.9 293.9c-62-38.7-141-54.2-234.1-54.2h-733.1v1054l-238.7-238.7v-1054h733.1c120.9 0 206.2 20.1 275.9 89.9l200 199.9zm65.1 58.9l209.3 209.3c43.3 43.4 66.6 105.4 66.6 186v24.8c0 116.3-35.6 168.9-148.8 189.1v13.9l99.2 99.2c40.3 40.3 52.7 89.9 52.7 155v51.2c0 186-124 269.7-336.3 269.7h-717.7l-238.7-238.7h717.6c212.4 0 336.4-83.7 336.4-269.7v-51.2c0-144.1-65.1-207.7-252.7-213.9v-29.4c187.6-6.2 249.6-69.8 249.6-213.9v-24.8c0-58.9-12.4-110.1-40.3-153.5zm-672.7 105.4h235.6c89.9 0 117.8 23.3 117.8 97.7v7.7c0 74.4-27.9 97.7-117.8 97.7h-235.6zm0 635.5v-213.9h235.6c89.9 0 117.8 23.2 117.8 97.6v18.6c0 74.4-27.9 97.7-117.8 97.7z"/>
	</g>
	<g id="Layer">
		<path id="Layer" class="s0" d="m1028.4 13.4v-13.2h65.9v13.2h-24.8v64.3h-15.5v-64.3zm100.7-13.2l19.4 55 20.2-55h21.7v77.5h-14v-62l-21.7 62h-12.4l-21.7-62v62h-13.9v-77.5z"/>
	</g>
</svg>